<?xml version="1.0" encoding="utf-8"?>
<!-- Generator: Adobe Illustrator 22.0.0, SVG Export Plug-In . SVG Version: 6.00 Build 0)  -->
<svg version="1.1" id="Слой_1" xmlns="http://www.w3.org/2000/svg" xmlns:xlink="http://www.w3.org/1999/xlink" x="0px" y="0px"
	 viewBox="0 0 181.6 39.6" style="enable-background:new 0 0 181.6 39.6;" xml:space="preserve">
<style type="text/css">
	.st0{fill:#E31E24;}
</style>
<g>
	<path class="st0" d="M10.9,7.2H7.3V4.9c0-0.7,0-1.1-0.1-1.3C7.1,3.4,7,3.3,6.7,3.3c-0.3,0-0.5,0.1-0.6,0.3S6,4.3,6,5v6.3
		c0,0.7,0,1.1,0.1,1.3c0.1,0.2,0.3,0.3,0.5,0.3c0.3,0,0.4-0.1,0.5-0.3c0.1-0.2,0.1-0.7,0.1-1.4V9.5h3.5V10c0,1.4-0.1,2.4-0.3,3
		c-0.2,0.6-0.6,1.1-1.3,1.5c-0.7,0.4-1.5,0.7-2.5,0.7c-1,0-1.9-0.2-2.6-0.6c-0.7-0.4-1.1-0.9-1.3-1.6c-0.2-0.7-0.3-1.7-0.3-3v-4
		c0-1,0-1.7,0.1-2.2c0.1-0.5,0.3-1,0.6-1.4S4,1.7,4.6,1.4S5.9,1,6.6,1c1,0,1.9,0.2,2.6,0.6c0.7,0.4,1.1,0.9,1.3,1.5
		c0.2,0.6,0.3,1.5,0.3,2.8V7.2z"/>
	<path class="st0" d="M15.5,3.8l-0.1,1c0.3-0.4,0.6-0.7,1-0.9c0.4-0.2,0.8-0.3,1.2-0.3c0.5,0,1,0.1,1.4,0.4c0.4,0.3,0.6,0.6,0.7,1
		s0.1,1,0.1,1.9v4.7c0,1-0.1,1.7-0.2,2.2c-0.1,0.4-0.4,0.8-0.7,1c-0.4,0.3-0.8,0.4-1.3,0.4c-0.4,0-0.8-0.1-1.2-0.3s-0.7-0.5-1-0.9
		v2.6H12V3.8H15.5z M16.4,7c0-0.7,0-1.1-0.1-1.3s-0.2-0.2-0.4-0.2c-0.2,0-0.4,0.1-0.4,0.3C15.4,6,15.4,6.4,15.4,7v4.6
		c0,0.7,0,1.1,0.1,1.3c0.1,0.2,0.2,0.3,0.4,0.3c0.2,0,0.4-0.1,0.4-0.2c0.1-0.2,0.1-0.5,0.1-1.1V7z"/>
	<path class="st0" d="M28.6,9.5h-4.4v2.4c0,0.5,0,0.8,0.1,1c0.1,0.1,0.2,0.2,0.4,0.2c0.3,0,0.4-0.1,0.5-0.3c0.1-0.2,0.1-0.6,0.1-1.1
		v-1.5h3.2v0.8c0,0.7,0,1.2-0.1,1.6c-0.1,0.4-0.3,0.8-0.6,1.2c-0.3,0.4-0.7,0.7-1.2,0.9c-0.5,0.2-1.1,0.3-1.8,0.3
		c-0.7,0-1.3-0.1-1.9-0.3c-0.5-0.2-1-0.5-1.3-0.9c-0.3-0.4-0.5-0.8-0.6-1.2c-0.1-0.4-0.2-1.1-0.2-1.9V7.6c0-1,0.1-1.7,0.4-2.3
		c0.3-0.6,0.7-1,1.3-1.3c0.6-0.3,1.3-0.4,2.1-0.4c1,0,1.7,0.2,2.4,0.5C27.6,4.5,28,5,28.2,5.5c0.2,0.6,0.4,1.4,0.4,2.5V9.5z
		 M25.2,7.7V6.9c0-0.6,0-0.9-0.1-1.1c-0.1-0.2-0.2-0.3-0.4-0.3c-0.2,0-0.4,0.1-0.4,0.2c-0.1,0.1-0.1,0.5-0.1,1.2v0.8H25.2z"/>
	<path class="st0" d="M39.6,17.1h-2.3v-2.1h-5.7v2.1h-2.3v-4.8h0.7c0.4-0.7,0.8-1.7,1.1-3.1c0.3-1.4,0.4-3.1,0.4-5V3.8h7.3v8.5h0.7
		V17.1z M35.5,12.2V6.3h-0.9v0.1c0,2.1-0.3,4-1,5.8H35.5z"/>
	<path class="st0" d="M47.9,8h-3.2V6.7c0-0.4,0-0.8-0.1-0.9c-0.1-0.2-0.2-0.2-0.4-0.2s-0.3,0.1-0.4,0.2c-0.1,0.1-0.1,0.5-0.1,0.9
		v5.3c0,0.4,0.1,0.7,0.2,0.9c0.1,0.2,0.2,0.3,0.4,0.3c0.2,0,0.4-0.1,0.5-0.3s0.1-0.6,0.1-1.2v-1.3h3c0,0.9,0,1.6-0.1,2
		s-0.2,0.9-0.6,1.4s-0.7,0.8-1.2,1.1s-1.1,0.4-1.9,0.4c-1,0-1.7-0.2-2.3-0.5s-1-0.8-1.2-1.4c-0.2-0.6-0.3-1.4-0.3-2.5V7.6
		c0-0.9,0.1-1.7,0.3-2.1c0.2-0.5,0.6-0.9,1.2-1.3c0.6-0.4,1.4-0.6,2.3-0.6c0.9,0,1.6,0.2,2.3,0.6c0.6,0.4,1,0.8,1.3,1.4
		C47.8,6.1,47.9,6.9,47.9,8z"/>
	<path class="st0" d="M55.6,3.8v2.3h-1.9v8.8h-3.4V6.1h-1.9V3.8H55.6z"/>
	<path class="st0" d="M64.2,12c0,1.1-0.2,1.9-0.7,2.3c-0.5,0.4-1.6,0.6-3.2,0.6h-3.9V3.8h4c1.4,0,2.3,0.2,2.8,0.7
		c0.5,0.5,0.8,1.2,0.8,2.3c0,1.3-0.7,2-2,2.1c0.7,0.1,1.2,0.4,1.6,0.8c0.4,0.4,0.6,1,0.6,1.6V12z M59.7,7.9c0.5,0,0.8-0.1,0.9-0.2
		c0.1-0.1,0.2-0.4,0.2-0.8c0-0.3-0.1-0.5-0.2-0.7c-0.1-0.1-0.4-0.2-0.9-0.2V7.9z M60.8,11.5v-0.4c0-0.5-0.1-0.8-0.2-0.9
		c-0.1-0.1-0.4-0.2-0.9-0.2v2.6c0.5,0,0.8-0.1,0.9-0.2C60.7,12.2,60.8,11.9,60.8,11.5z"/>
	<path class="st0" d="M72.8,7.7v2.7c0,1-0.1,1.7-0.2,2.2s-0.3,0.9-0.6,1.3s-0.8,0.7-1.3,0.9c-0.5,0.2-1.1,0.3-1.8,0.3
		c-0.7,0-1.4-0.1-1.9-0.2s-0.9-0.4-1.2-0.7c-0.3-0.3-0.5-0.7-0.6-1.2c-0.1-0.5-0.2-1.2-0.2-2.1V7.9c0-1,0.1-1.8,0.3-2.4
		s0.6-1,1.2-1.4c0.6-0.4,1.3-0.5,2.2-0.5c0.8,0,1.4,0.1,2,0.3c0.5,0.2,1,0.5,1.3,0.9c0.3,0.4,0.5,0.7,0.6,1.1S72.8,6.9,72.8,7.7z
		 M69.4,6.8c0-0.6,0-0.9-0.1-1.1c-0.1-0.1-0.2-0.2-0.4-0.2s-0.3,0.1-0.4,0.2c-0.1,0.1-0.1,0.5-0.1,1.1v5c0,0.5,0,0.9,0.1,1
		c0.1,0.2,0.2,0.2,0.4,0.2c0.2,0,0.3-0.1,0.4-0.2c0.1-0.1,0.1-0.5,0.1-0.9V6.8z"/>
	<path class="st0" d="M84.6,7.7v2.7c0,1-0.1,1.7-0.2,2.2s-0.3,0.9-0.6,1.3s-0.8,0.7-1.3,0.9c-0.5,0.2-1.1,0.3-1.8,0.3
		c-0.7,0-1.4-0.1-1.9-0.2s-0.9-0.4-1.2-0.7c-0.3-0.3-0.5-0.7-0.6-1.2c-0.1-0.5-0.2-1.2-0.2-2.1V7.9c0-1,0.1-1.8,0.3-2.4
		s0.6-1,1.2-1.4c0.6-0.4,1.3-0.5,2.2-0.5c0.8,0,1.4,0.1,2,0.3c0.5,0.2,1,0.5,1.3,0.9c0.3,0.4,0.5,0.7,0.6,1.1S84.6,6.9,84.6,7.7z
		 M81.2,6.8c0-0.6,0-0.9-0.1-1.1c-0.1-0.1-0.2-0.2-0.4-0.2s-0.3,0.1-0.4,0.2c-0.1,0.1-0.1,0.5-0.1,1.1v5c0,0.5,0,0.9,0.1,1
		c0.1,0.2,0.2,0.2,0.4,0.2c0.2,0,0.3-0.1,0.4-0.2c0.1-0.1,0.1-0.5,0.1-0.9V6.8z"/>
	<path class="st0" d="M92.4,3.8v2.3h-1.9v8.8h-3.4V6.1h-1.9V3.8H92.4z"/>
	<path class="st0" d="M103.6,8h-3.2V6.7c0-0.4,0-0.8-0.1-0.9c-0.1-0.2-0.2-0.2-0.4-0.2c-0.2,0-0.3,0.1-0.4,0.2
		c-0.1,0.1-0.1,0.5-0.1,0.9v5.3c0,0.4,0.1,0.7,0.2,0.9s0.2,0.3,0.4,0.3c0.2,0,0.4-0.1,0.5-0.3s0.1-0.6,0.1-1.2v-1.3h3
		c0,0.9,0,1.6-0.1,2c-0.1,0.4-0.2,0.9-0.6,1.4c-0.3,0.5-0.7,0.8-1.2,1.1s-1.1,0.4-1.9,0.4c-1,0-1.7-0.2-2.3-0.5s-1-0.8-1.2-1.4
		c-0.2-0.6-0.3-1.4-0.3-2.5V7.6c0-0.9,0.1-1.7,0.3-2.1c0.2-0.5,0.6-0.9,1.2-1.3c0.6-0.4,1.4-0.6,2.3-0.6c0.9,0,1.6,0.2,2.3,0.6
		c0.6,0.4,1,0.8,1.2,1.4C103.5,6.1,103.6,6.9,103.6,8z"/>
	<path class="st0" d="M113,14.9h-3v-6l-2.4,6h-3.1V3.8h3v6l2.3-6h3.1V14.9z"/>
	<path class="st0" d="M124.8,14.9h-2.9V7.2l-1.4,7.7h-1.9l-1.5-7.7v7.7h-2.9V3.8h4.2l1.1,6.2l1-6.2h4.3V14.9z"/>
	<path class="st0" d="M126,14.9V3.8h7.9v11.1h-3.4V6.1h-1.2v8.8H126z"/>
	<path class="st0" d="M141.8,3.8v2.3h-1.9v8.8h-3.4V6.1h-1.9V3.8H141.8z"/>
	<path class="st0" d="M150.2,7.7v2.7c0,1-0.1,1.7-0.2,2.2s-0.3,0.9-0.6,1.3c-0.3,0.4-0.8,0.7-1.3,0.9c-0.5,0.2-1.1,0.3-1.8,0.3
		c-0.7,0-1.4-0.1-1.9-0.2c-0.5-0.2-0.9-0.4-1.2-0.7c-0.3-0.3-0.5-0.7-0.6-1.2c-0.1-0.5-0.2-1.2-0.2-2.1V7.9c0-1,0.1-1.8,0.3-2.4
		s0.6-1,1.2-1.4c0.6-0.4,1.3-0.5,2.2-0.5c0.8,0,1.4,0.1,2,0.3s1,0.5,1.3,0.9c0.3,0.4,0.5,0.7,0.6,1.1S150.2,6.9,150.2,7.7z
		 M146.8,6.8c0-0.6,0-0.9-0.1-1.1c-0.1-0.1-0.2-0.2-0.4-0.2c-0.2,0-0.3,0.1-0.4,0.2c-0.1,0.1-0.1,0.5-0.1,1.1v5c0,0.5,0,0.9,0.1,1
		c0.1,0.2,0.2,0.2,0.4,0.2c0.2,0,0.3-0.1,0.4-0.2c0.1-0.1,0.1-0.5,0.1-0.9V6.8z"/>
	<path class="st0" d="M161.8,14.9h-2.9V7.2l-1.4,7.7h-1.9l-1.5-7.7v7.7h-2.9V3.8h4.2l1.1,6.2l1-6.2h4.3V14.9z"/>
	<path class="st0" d="M170.7,7.7v2.7c0,1-0.1,1.7-0.2,2.2s-0.3,0.9-0.6,1.3c-0.3,0.4-0.8,0.7-1.3,0.9c-0.5,0.2-1.1,0.3-1.8,0.3
		c-0.7,0-1.4-0.1-1.9-0.2c-0.5-0.2-0.9-0.4-1.2-0.7c-0.3-0.3-0.5-0.7-0.6-1.2c-0.1-0.5-0.2-1.2-0.2-2.1V7.9c0-1,0.1-1.8,0.3-2.4
		s0.6-1,1.2-1.4c0.6-0.4,1.3-0.5,2.2-0.5c0.8,0,1.4,0.1,2,0.3s1,0.5,1.3,0.9c0.3,0.4,0.5,0.7,0.6,1.1S170.7,6.9,170.7,7.7z
		 M167.3,6.8c0-0.6,0-0.9-0.1-1.1c-0.1-0.1-0.2-0.2-0.4-0.2c-0.2,0-0.3,0.1-0.4,0.2c-0.1,0.1-0.1,0.5-0.1,1.1v5c0,0.5,0,0.9,0.1,1
		c0.1,0.2,0.2,0.2,0.4,0.2c0.2,0,0.3-0.1,0.4-0.2c0.1-0.1,0.1-0.5,0.1-0.9V6.8z"/>
	<path class="st0" d="M179.7,12c0,1.1-0.2,1.9-0.7,2.3c-0.5,0.4-1.6,0.6-3.2,0.6h-3.9V3.8h4c1.4,0,2.3,0.2,2.8,0.7
		c0.5,0.5,0.8,1.2,0.8,2.3c0,1.3-0.7,2-2,2.1c0.7,0.1,1.2,0.4,1.6,0.8c0.4,0.4,0.6,1,0.6,1.6V12z M175.2,7.9c0.5,0,0.8-0.1,0.9-0.2
		c0.1-0.1,0.2-0.4,0.2-0.8c0-0.3-0.1-0.5-0.2-0.7s-0.4-0.2-0.9-0.2V7.9z M176.3,11.5v-0.4c0-0.5-0.1-0.8-0.2-0.9s-0.4-0.2-0.9-0.2
		v2.6c0.5,0,0.8-0.1,0.9-0.2C176.2,12.2,176.3,11.9,176.3,11.5z"/>
	<path class="st0" d="M22.8,24.6h-2.6v10.9h-3.5V21.9h6.1V24.6z"/>
	<path class="st0" d="M23.7,21.9h3.6c1,0,1.7,0.1,2.2,0.2c0.5,0.2,0.9,0.4,1.2,0.7c0.3,0.3,0.4,0.6,0.5,1s0.1,1,0.1,1.9v1.2
		c0,0.9-0.1,1.5-0.3,1.9c-0.2,0.4-0.5,0.7-1,0.9c-0.5,0.2-1.1,0.3-1.9,0.3h-0.9v5.5h-3.5V21.9z M27.3,24.3v3.5c0.1,0,0.2,0,0.3,0
		c0.3,0,0.5-0.1,0.7-0.2s0.2-0.5,0.2-1v-1.1c0-0.5-0.1-0.8-0.2-0.9C28,24.3,27.7,24.3,27.3,24.3z"/>
	<path class="st0" d="M40.2,35.5h-3v-6.2l-1.8,6.2h-3.1V21.9h3v6.1l2-6.1h3V35.5z"/>
	<path class="st0" d="M49.8,35.5h-3.5V24.6h-1v10.9h-3.5V21.9h8.1V35.5z"/>
	<path class="st0" d="M59.3,35.5h-3.5V24.6h-1v10.9h-3.5V21.9h8.1V35.5z"/>
	<path class="st0" d="M66.8,21.9l2,13.6h-3.6L65,33.1h-1.3l-0.2,2.4h-3.7l1.8-13.6H66.8z M65,30.7c-0.2-1.5-0.4-3.4-0.5-5.7
		c-0.4,2.6-0.6,4.5-0.7,5.7H65z"/>
	<path class="st0" d="M80.8,35.5h-3v-6l-2.4,6h-3.1V24.4h3v6l2.3-6h3.1V35.5z"/>
	<path class="st0" d="M93.2,35.5h-3.5V24.6h-1v10.9h-3.5V21.9h8.1V35.5z"/>
	<path class="st0" d="M94.6,21.9h3.6c1,0,1.7,0.1,2.2,0.2c0.5,0.2,0.9,0.4,1.2,0.7c0.3,0.3,0.4,0.6,0.5,1c0.1,0.4,0.1,1,0.1,1.9v1.2
		c0,0.9-0.1,1.5-0.3,1.9c-0.2,0.4-0.5,0.7-1,0.9c-0.5,0.2-1.1,0.3-1.9,0.3h-0.9v5.5h-3.5V21.9z M98.2,24.3v3.5c0.1,0,0.2,0,0.3,0
		c0.3,0,0.5-0.1,0.7-0.2s0.2-0.5,0.2-1v-1.1c0-0.5-0.1-0.8-0.2-0.9C98.9,24.3,98.6,24.3,98.2,24.3z"/>
	<path class="st0" d="M111.3,29.9c0,1.4,0,2.3-0.1,2.9c-0.1,0.6-0.3,1.1-0.6,1.6c-0.3,0.5-0.8,0.8-1.4,1.1c-0.6,0.3-1.2,0.4-2,0.4
		c-0.7,0-1.4-0.1-2-0.4c-0.6-0.2-1-0.6-1.4-1.1c-0.4-0.5-0.6-1-0.6-1.6c-0.1-0.6-0.1-1.5-0.1-2.9v-2.3c0-1.4,0-2.3,0.1-2.9
		c0.1-0.6,0.3-1.1,0.6-1.6c0.3-0.5,0.8-0.8,1.4-1.1c0.6-0.3,1.2-0.4,2-0.4c0.7,0,1.4,0.1,2,0.4c0.6,0.2,1,0.6,1.4,1.1
		c0.4,0.5,0.6,1,0.6,1.6c0.1,0.6,0.1,1.5,0.1,2.9V29.9z M107.8,25.4c0-0.6,0-1-0.1-1.2c-0.1-0.2-0.2-0.3-0.4-0.3
		c-0.2,0-0.3,0.1-0.4,0.2c-0.1,0.1-0.1,0.6-0.1,1.3v6.3c0,0.8,0,1.3,0.1,1.5s0.2,0.3,0.4,0.3c0.2,0,0.4-0.1,0.5-0.3
		c0.1-0.2,0.1-0.7,0.1-1.5V25.4z"/>
	<path class="st0" d="M120.9,27.9h-3.5v-2.4c0-0.7,0-1.1-0.1-1.3c-0.1-0.2-0.2-0.3-0.5-0.3c-0.3,0-0.5,0.1-0.6,0.3
		c-0.1,0.2-0.1,0.7-0.1,1.3v6.3c0,0.7,0,1.1,0.1,1.3c0.1,0.2,0.3,0.3,0.5,0.3c0.3,0,0.4-0.1,0.5-0.3c0.1-0.2,0.1-0.7,0.1-1.4v-1.7
		h3.5v0.5c0,1.4-0.1,2.4-0.3,3c-0.2,0.6-0.6,1.1-1.3,1.5c-0.7,0.4-1.5,0.7-2.5,0.7c-1,0-1.9-0.2-2.6-0.6c-0.7-0.4-1.1-0.9-1.3-1.6
		c-0.2-0.7-0.3-1.7-0.3-3v-4c0-1,0-1.7,0.1-2.2c0.1-0.5,0.3-1,0.6-1.4c0.3-0.5,0.8-0.8,1.4-1.1s1.3-0.4,2-0.4c1,0,1.9,0.2,2.6,0.6
		c0.7,0.4,1.1,0.9,1.3,1.5c0.2,0.6,0.3,1.5,0.3,2.8V27.9z"/>
	<path class="st0" d="M129.3,21.9v2.7h-2.1v10.9h-3.5V24.7h-2.1v-2.7H129.3z"/>
	<path class="st0" d="M137.1,21.9l-1,9c-0.2,1.4-0.3,2.4-0.5,3c-0.2,0.6-0.5,1-1,1.2c-0.5,0.2-1.3,0.4-2.5,0.4h-2.1v-1.8h0.2
		c0.5,0,0.8,0,0.9-0.1c0.1-0.1,0.2-0.2,0.2-0.3c0,0-0.1-0.4-0.2-1.1l-1.9-10.2h3.1l1.1,8.5l0.5-8.5H137.1z"/>
	<path class="st0" d="M147.9,37.9h-2.4v-2.3h-5.7v2.3h-2.4v-5.2h0.7c0.4-1.1,0.7-2.6,0.9-4.4s0.4-3.8,0.4-6v-0.4h7.8v10.7h0.7V37.9z
		 M143.6,32.7v-8.1h-1v0.1c0,2.6-0.3,5.3-0.8,8H143.6z"/>
	<path class="st0" d="M157.2,32.3c0,1-0.1,1.7-0.4,2.2s-0.7,0.7-1.2,0.8c-0.5,0.1-1.4,0.2-2.6,0.2H149V21.9h3.5v4.7h0.5
		c1.1,0,1.9,0.1,2.5,0.2c0.6,0.1,1,0.4,1.3,0.9c0.3,0.4,0.4,1.1,0.4,2.1V32.3z M153.7,31.9v-2c0-0.6-0.1-0.9-0.2-1
		c-0.1-0.1-0.4-0.2-1-0.2v4.5c0.4,0,0.8-0.1,0.9-0.2C153.6,32.9,153.7,32.5,153.7,31.9z M161.9,35.5h-3.5V21.9h3.5V35.5z"/>
	<path class="st0" d="M165.7,26.7v2.8h-2.6v-2.8H165.7z M165.7,32.8v2.8h-2.6v-2.8H165.7z"/>
</g>
</svg>
