<?xml version="1.0" encoding="utf-8"?>
<!-- Generator: Adobe Illustrator 22.0.0, SVG Export Plug-In . SVG Version: 6.00 Build 0)  -->
<svg version="1.1" id="Слой_1" xmlns="http://www.w3.org/2000/svg" xmlns:xlink="http://www.w3.org/1999/xlink" x="0px" y="0px"
	 viewBox="0 0 109 15" style="enable-background:new 0 0 109 15;" xml:space="preserve">
<style type="text/css">
	.st0{fill:#0093CB;}
</style>
<g>
	<path class="st0" d="M10.5,7.5c0,1,0,1.7-0.1,2.2c0,0.4-0.2,0.8-0.5,1.2c-0.3,0.4-0.6,0.6-1,0.8c-0.4,0.2-0.9,0.3-1.5,0.3
		c-0.5,0-1-0.1-1.5-0.3c-0.4-0.2-0.8-0.4-1-0.8c-0.3-0.4-0.4-0.7-0.5-1.2C4.4,9.3,4.4,8.5,4.4,7.5V5.7c0-1,0-1.7,0.1-2.2
		c0-0.4,0.2-0.8,0.5-1.2s0.6-0.6,1-0.8c0.4-0.2,0.9-0.3,1.5-0.3c0.5,0,1,0.1,1.5,0.3C9.3,1.8,9.7,2,10,2.4c0.3,0.4,0.4,0.7,0.5,1.2
		c0.1,0.4,0.1,1.2,0.1,2.2V7.5z M7.9,4.1c0-0.5,0-0.8-0.1-0.9C7.7,3.1,7.6,3,7.5,3C7.3,3,7.2,3.1,7.1,3.2C7.1,3.3,7,3.6,7,4.1v4.8
		c0,0.6,0,1,0.1,1.1s0.2,0.2,0.3,0.2c0.2,0,0.3-0.1,0.3-0.2c0.1-0.2,0.1-0.5,0.1-1.1V4.1z"/>
	<path class="st0" d="M17.7,9.3c0,0.8-0.1,1.3-0.3,1.6c-0.2,0.3-0.5,0.5-0.9,0.6s-1,0.1-1.9,0.1h-3.1V1.5h5.2v1.8h-2.5V5h0.4
		c0.8,0,1.4,0,1.9,0.1c0.4,0.1,0.7,0.3,0.9,0.6c0.2,0.3,0.3,0.8,0.3,1.6V9.3z M15,9V7.5c0-0.4,0-0.7-0.1-0.8
		c-0.1-0.1-0.3-0.1-0.7-0.2V10c0.3,0,0.6,0,0.7-0.1C15,9.7,15,9.5,15,9z"/>
	<path class="st0" d="M18.6,1.5H23v2h-1.8v1.9h1.7v1.9h-1.7v2.2h1.9v2h-4.6V1.5z"/>
	<path class="st0" d="M28.7,5.9c0.4,0.1,0.7,0.3,0.9,0.6c0.2,0.3,0.3,1,0.3,2.1c0,0.8-0.1,1.4-0.3,1.9c-0.2,0.4-0.5,0.8-1,1
		c-0.5,0.2-1,0.3-1.7,0.3c-0.8,0-1.4-0.1-1.9-0.4c-0.5-0.3-0.8-0.6-0.9-1c-0.1-0.4-0.2-1.1-0.2-2V7.7h2.5v1.7c0,0.4,0,0.7,0.1,0.8
		c0.1,0.1,0.2,0.2,0.3,0.2c0.2,0,0.3-0.1,0.4-0.2c0.1-0.2,0.1-0.5,0.1-1.2V8.2c0-0.4,0-0.7-0.1-0.9c-0.1-0.2-0.2-0.3-0.4-0.4
		c-0.2-0.1-0.5-0.1-1-0.1V5.4c0.6,0,1,0,1.1-0.1c0.1,0,0.2-0.1,0.3-0.3s0.1-0.4,0.1-0.7V3.8c0-0.4,0-0.6-0.1-0.7
		C27.1,3,27,2.9,26.8,2.9c-0.2,0-0.3,0.1-0.4,0.2c-0.1,0.1-0.1,0.4-0.1,0.8v0.8h-2.5V3.8c0-1,0.2-1.6,0.7-2c0.4-0.3,1.2-0.5,2.1-0.5
		c1.2,0,2,0.2,2.5,0.7c0.4,0.5,0.6,1.1,0.6,2c0,0.6-0.1,1-0.2,1.2S29.1,5.7,28.7,5.9z"/>
	<path class="st0" d="M37,9.3c0,0.8-0.1,1.3-0.3,1.6c-0.2,0.3-0.5,0.5-0.9,0.6s-1,0.1-1.9,0.1h-3.1V1.5H36v1.8h-2.5V5h0.4
		c0.8,0,1.4,0,1.9,0.1c0.4,0.1,0.7,0.3,0.9,0.6C36.9,6.1,37,6.6,37,7.3V9.3z M34.3,9V7.5c0-0.4,0-0.7-0.1-0.8
		c-0.1-0.1-0.3-0.1-0.7-0.2V10c0.3,0,0.6,0,0.7-0.1C34.3,9.7,34.3,9.5,34.3,9z"/>
	<path class="st0" d="M44,7.5c0,1,0,1.7-0.1,2.2c0,0.4-0.2,0.8-0.5,1.2c-0.3,0.4-0.6,0.6-1,0.8c-0.4,0.2-0.9,0.3-1.5,0.3
		c-0.5,0-1-0.1-1.5-0.3c-0.4-0.2-0.8-0.4-1-0.8c-0.3-0.4-0.4-0.7-0.5-1.2c-0.1-0.4-0.1-1.2-0.1-2.2V5.7c0-1,0-1.7,0.1-2.2
		c0-0.4,0.2-0.8,0.5-1.2s0.6-0.6,1-0.8c0.4-0.2,0.9-0.3,1.5-0.3c0.5,0,1,0.1,1.5,0.3c0.4,0.2,0.8,0.4,1,0.8c0.3,0.4,0.4,0.7,0.5,1.2
		C44,4,44,4.7,44,5.7V7.5z M41.3,4.1c0-0.5,0-0.8-0.1-0.9C41.2,3.1,41.1,3,40.9,3c-0.1,0-0.2,0.1-0.3,0.2c-0.1,0.1-0.1,0.4-0.1,0.9
		v4.8c0,0.6,0,1,0.1,1.1s0.2,0.2,0.3,0.2c0.2,0,0.3-0.1,0.3-0.2c0.1-0.2,0.1-0.5,0.1-1.1V4.1z"/>
	<path class="st0" d="M51.4,11.7h-2.7V3.6H48v5.8c0,0.8-0.1,1.3-0.3,1.6c-0.2,0.3-0.5,0.5-0.9,0.6s-1,0.1-1.9,0.1h-0.4V10
		c0.3,0,0.5,0,0.7-0.1c0.1-0.1,0.2-0.4,0.2-0.8V1.5h6.1V11.7z"/>
	<path class="st0" d="M58.4,11.7h-2.2V7.1l-1.4,4.6h-2.3V1.5h2.2v4.6l1.5-4.6h2.2V11.7z"/>
	<path class="st0" d="M59.5,1.5h2.6c0.8,0,1.5,0.1,1.9,0.2c0.4,0.1,0.8,0.4,1,0.8c0.3,0.4,0.4,1,0.4,1.9c0,0.6-0.1,1-0.3,1.2
		c-0.2,0.2-0.6,0.4-1.1,0.5c0.6,0.1,1,0.4,1.2,0.7c0.2,0.3,0.3,0.8,0.3,1.5v0.9c0,0.7-0.1,1.2-0.2,1.5c-0.2,0.3-0.4,0.6-0.8,0.7
		c-0.3,0.1-1,0.2-2.1,0.2h-3.1V1.5z M62.1,3.3v2.3c0.1,0,0.2,0,0.3,0c0.3,0,0.4-0.1,0.5-0.2S63,4.8,63,4.2c0-0.3,0-0.5-0.1-0.7
		s-0.1-0.2-0.2-0.2S62.4,3.3,62.1,3.3z M62.1,7.1V10c0.4,0,0.6-0.1,0.7-0.2C62.9,9.7,63,9.4,63,9v-1c0-0.4,0-0.7-0.1-0.8
		C62.8,7.2,62.5,7.1,62.1,7.1z"/>
	<path class="st0" d="M71.2,1.5l1.5,10.2H70l-0.1-1.8h-0.9l-0.2,1.8H66l1.4-10.2H71.2z M69.8,8.1c-0.1-1.2-0.3-2.6-0.4-4.3
		c-0.3,2-0.4,3.4-0.5,4.3H69.8z"/>
	<path class="st0" d="M76.5,7.4h-0.7v4.3h-2.7V1.5h2.7v3.7h0.7c0-0.9,0.1-1.5,0.1-1.9s0.3-0.7,0.5-1c0.3-0.3,0.6-0.4,1-0.6
		c0.4-0.1,0.9-0.2,1.4-0.2c0.6,0,1.1,0.1,1.5,0.2c0.4,0.1,0.7,0.3,1,0.6c0.3,0.3,0.4,0.7,0.5,1.1s0.1,1.2,0.1,2.3v1.7
		c0,1.1,0,1.9-0.1,2.3c-0.1,0.4-0.2,0.8-0.5,1.1s-0.6,0.5-1,0.6c-0.4,0.1-0.9,0.2-1.5,0.2c-0.5,0-1-0.1-1.4-0.2
		c-0.4-0.1-0.7-0.3-1-0.5c-0.3-0.2-0.4-0.5-0.5-0.8c-0.1-0.3-0.1-0.6-0.2-1.1C76.5,8.7,76.5,8.2,76.5,7.4L76.5,7.4z M80,9.2V4.1
		c0-0.4,0-0.7-0.1-0.9S79.8,3,79.6,3c-0.2,0-0.3,0.1-0.3,0.2c-0.1,0.1-0.1,0.4-0.1,0.9v5.2c0,0.3,0,0.5,0.1,0.6
		c0.1,0.1,0.2,0.2,0.3,0.2c0.1,0,0.3-0.1,0.3-0.2C80,9.9,80,9.6,80,9.2z"/>
	<path class="st0" d="M93.7,13.5h-1.8v-1.8h-8.2V1.5h2.7v8.2h0.8V1.5h2.7v8.2h0.8V1.5h2.7v8.2h0.5V13.5z"/>
	<path class="st0" d="M94.5,1.5h4.4v2h-1.8v1.9h1.7v1.9h-1.7v2.2h1.9v2h-4.6V1.5z"/>
	<path class="st0" d="M99.8,1.5h4.4v2h-1.8v1.9h1.7v1.9h-1.7v2.2h1.9v2h-4.6V1.5z"/>
</g>
</svg>
