<?xml version="1.0" encoding="utf-8"?>
<!-- Generator: Adobe Illustrator 22.0.0, SVG Export Plug-In . SVG Version: 6.00 Build 0)  -->
<svg version="1.1" id="Слой_1" xmlns="http://www.w3.org/2000/svg" xmlns:xlink="http://www.w3.org/1999/xlink" x="0px" y="0px"
	 viewBox="0 0 156.9 30.7" style="enable-background:new 0 0 156.9 30.7;" xml:space="preserve">
<style type="text/css">
	.st0{fill:#0093CB;}
</style>
<g>
	<path class="st0" d="M8.8,12.8H6.1V4.7H5.3v8.2H2.7V2.6h6.1V12.8z"/>
	<path class="st0" d="M15.9,8.6c0,1,0,1.7-0.1,2.2c0,0.4-0.2,0.8-0.5,1.2c-0.3,0.4-0.6,0.6-1,0.8c-0.4,0.2-0.9,0.3-1.5,0.3
		c-0.5,0-1-0.1-1.5-0.3c-0.4-0.2-0.8-0.4-1-0.8c-0.3-0.4-0.4-0.7-0.5-1.2c-0.1-0.4-0.1-1.2-0.1-2.2V6.9c0-1,0-1.7,0.1-2.2
		c0-0.4,0.2-0.8,0.5-1.2s0.6-0.6,1-0.8c0.4-0.2,0.9-0.3,1.5-0.3c0.5,0,1,0.1,1.5,0.3c0.4,0.2,0.8,0.4,1,0.8c0.3,0.4,0.4,0.7,0.5,1.2
		c0.1,0.4,0.1,1.2,0.1,2.2V8.6z M13.2,5.2c0-0.5,0-0.8-0.1-0.9c-0.1-0.1-0.2-0.2-0.3-0.2c-0.1,0-0.2,0.1-0.3,0.2
		c-0.1,0.1-0.1,0.4-0.1,0.9V10c0,0.6,0,1,0.1,1.1s0.2,0.2,0.3,0.2c0.2,0,0.3-0.1,0.3-0.2c0.1-0.2,0.1-0.5,0.1-1.1V5.2z"/>
	<path class="st0" d="M25,2.6v10.2h-2.3l0-6.9l-0.9,6.9h-1.6l-1-6.7l0,6.7h-2.3V2.6h3.4c0.1,0.6,0.2,1.3,0.3,2.2L21,7.4l0.6-4.8H25z
		"/>
	<path class="st0" d="M32.2,8.6c0,1,0,1.7-0.1,2.2c0,0.4-0.2,0.8-0.5,1.2c-0.3,0.4-0.6,0.6-1,0.8c-0.4,0.2-0.9,0.3-1.5,0.3
		c-0.5,0-1-0.1-1.5-0.3c-0.4-0.2-0.8-0.4-1-0.8c-0.3-0.4-0.4-0.7-0.5-1.2C26.1,10.4,26,9.6,26,8.6V6.9c0-1,0-1.7,0.1-2.2
		c0-0.4,0.2-0.8,0.5-1.2s0.6-0.6,1-0.8c0.4-0.2,0.9-0.3,1.5-0.3c0.5,0,1,0.1,1.5,0.3c0.4,0.2,0.8,0.4,1,0.8c0.3,0.4,0.4,0.7,0.5,1.2
		c0.1,0.4,0.1,1.2,0.1,2.2V8.6z M29.5,5.2c0-0.5,0-0.8-0.1-0.9c-0.1-0.1-0.2-0.2-0.3-0.2c-0.1,0-0.2,0.1-0.3,0.2
		c-0.1,0.1-0.1,0.4-0.1,0.9V10c0,0.6,0,1,0.1,1.1s0.2,0.2,0.3,0.2c0.2,0,0.3-0.1,0.3-0.2c0.1-0.2,0.1-0.5,0.1-1.1V5.2z"/>
	<path class="st0" d="M37.7,4.7h-1.9v8.2h-2.7V2.6h4.6V4.7z"/>
	<path class="st0" d="M43,2.6l1.5,10.2h-2.7L41.7,11h-0.9l-0.2,1.8h-2.7l1.4-10.2H43z M41.6,9.2c-0.1-1.2-0.3-2.6-0.4-4.3
		c-0.3,2-0.4,3.4-0.5,4.3H41.6z"/>
	<path class="st0" d="M45,2.6h4.4v2h-1.8v1.9h1.7v1.9h-1.7v2.2h1.9v2H45V2.6z"/>
	<path class="st0" d="M55.7,2.6v2h-1.6v8.2h-2.7V4.7h-1.6v-2H55.7z"/>
	<path class="st0" d="M63.8,2.6l-0.7,6.8c-0.1,1.1-0.2,1.8-0.4,2.2c-0.1,0.4-0.4,0.7-0.8,0.9c-0.4,0.2-1,0.3-1.8,0.3h-1.5v-1.3h0.2
		c0.3,0,0.6,0,0.6-0.1c0.1-0.1,0.1-0.1,0.1-0.3c0,0-0.1-0.3-0.2-0.9L58,2.6h2.3L61.1,9l0.4-6.4H63.8z"/>
	<path class="st0" d="M70.6,7.1h-2.7V5.3c0-0.5,0-0.8-0.1-1s-0.2-0.2-0.4-0.2c-0.2,0-0.4,0.1-0.4,0.2c-0.1,0.2-0.1,0.5-0.1,1v4.7
		c0,0.5,0,0.8,0.1,1c0.1,0.2,0.2,0.2,0.4,0.2c0.2,0,0.3-0.1,0.4-0.2c0.1-0.2,0.1-0.5,0.1-1.1V8.7h2.7v0.4c0,1.1-0.1,1.8-0.2,2.2
		c-0.1,0.4-0.5,0.8-1,1.2S68.2,13,67.5,13c-0.8,0-1.4-0.1-1.9-0.4c-0.5-0.3-0.8-0.7-1-1.2c-0.2-0.5-0.2-1.2-0.2-2.2v-3
		c0-0.7,0-1.3,0.1-1.7c0-0.4,0.2-0.7,0.5-1.1c0.2-0.3,0.6-0.6,1-0.8c0.4-0.2,1-0.3,1.5-0.3c0.8,0,1.4,0.2,1.9,0.5
		c0.5,0.3,0.8,0.7,1,1.1c0.2,0.5,0.2,1.2,0.2,2.1V7.1z"/>
	<path class="st0" d="M76.8,2.6v2h-1.6v8.2h-2.7V4.7H71v-2H76.8z"/>
	<path class="st0" d="M77.4,2.6h2.7c0.7,0,1.3,0.1,1.7,0.2c0.4,0.1,0.7,0.3,0.9,0.5c0.2,0.2,0.3,0.5,0.4,0.8
		c0.1,0.3,0.1,0.8,0.1,1.4v0.9c0,0.7-0.1,1.1-0.2,1.4c-0.1,0.3-0.4,0.5-0.7,0.7c-0.4,0.2-0.8,0.2-1.4,0.2h-0.7v4.1h-2.7V2.6z
		 M80.1,4.4V7c0.1,0,0.1,0,0.2,0c0.2,0,0.4-0.1,0.5-0.2c0.1-0.1,0.1-0.4,0.1-0.7V5.2c0-0.3-0.1-0.6-0.2-0.7
		C80.7,4.4,80.4,4.4,80.1,4.4z"/>
	<path class="st0" d="M88.5,2.6L90,12.8h-2.7L87.2,11h-0.9l-0.2,1.8h-2.7l1.4-10.2H88.5z M87.1,9.2C87,8,86.8,6.6,86.7,4.9
		c-0.3,2-0.4,3.4-0.5,4.3H87.1z"/>
	<path class="st0" d="M96.6,2.6v10.2h-2.7V8.5h-0.8v4.3h-2.7V2.6h2.7v3.6h0.8V2.6H96.6z"/>
	<path class="st0" d="M103.5,12.8h-2.2V8.2l-1.4,4.6h-2.3V2.6h2.2v4.6l1.5-4.6h2.2V12.8z"/>
	<path class="st0" d="M109.9,2.6v2h-1.6v8.2h-2.7V4.7h-1.6v-2H109.9z"/>
	<path class="st0" d="M116.7,10.4c0,0.8-0.1,1.3-0.3,1.6c-0.2,0.3-0.5,0.5-0.9,0.6c-0.4,0.1-1,0.1-1.9,0.1h-3.1V2.6h2.7v3.5h0.4
		c0.8,0,1.4,0,1.9,0.1s0.7,0.3,0.9,0.6c0.2,0.3,0.3,0.8,0.3,1.6V10.4z M114.1,10.1V8.7c0-0.4,0-0.7-0.1-0.8
		c-0.1-0.1-0.3-0.1-0.7-0.2v3.3c0.3,0,0.6,0,0.7-0.1C114,10.8,114.1,10.6,114.1,10.1z"/>
	<path class="st0" d="M126,8.6c0,1,0,1.7-0.1,2.2c0,0.4-0.2,0.8-0.5,1.2s-0.6,0.6-1,0.8c-0.4,0.2-0.9,0.3-1.5,0.3
		c-0.5,0-1-0.1-1.5-0.3c-0.4-0.2-0.8-0.4-1-0.8c-0.3-0.4-0.4-0.7-0.5-1.2c-0.1-0.4-0.1-1.2-0.1-2.2V6.9c0-1,0-1.7,0.1-2.2
		c0-0.4,0.2-0.8,0.5-1.2c0.3-0.4,0.6-0.6,1-0.8c0.4-0.2,0.9-0.3,1.5-0.3c0.5,0,1,0.1,1.5,0.3s0.8,0.4,1,0.8s0.4,0.7,0.5,1.2
		c0.1,0.4,0.1,1.2,0.1,2.2V8.6z M123.3,5.2c0-0.5,0-0.8-0.1-0.9c-0.1-0.1-0.2-0.2-0.3-0.2c-0.1,0-0.2,0.1-0.3,0.2
		c-0.1,0.1-0.1,0.4-0.1,0.9V10c0,0.6,0,1,0.1,1.1c0,0.1,0.2,0.2,0.3,0.2c0.2,0,0.3-0.1,0.3-0.2c0.1-0.2,0.1-0.5,0.1-1.1V5.2z"/>
	<path class="st0" d="M132.3,2.6v2h-1.6v8.2h-2.7V4.7h-1.6v-2H132.3z"/>
	<path class="st0" d="M132.9,2.6h4.4v2h-1.8v1.9h1.7v1.9h-1.7v2.2h1.9v2h-4.6V2.6z"/>
	<path class="st0" d="M138.3,2.6h2.7l0,4.3c0.5,0,0.8-0.3,0.8-0.8l0.1-2c0-0.7,0.2-1.2,0.4-1.5h2.4c-0.2,0.2-0.4,0.8-0.4,1.5l0,1.8
		c0,1.1-0.6,1.7-1.8,1.8c1.2,0.1,1.8,0.8,1.8,1.8l0,1.6c0,0.8,0.1,1.3,0.4,1.6h-2.4c-0.3-0.3-0.4-0.8-0.4-1.5v-2
		c0-0.3-0.1-0.5-0.2-0.6s-0.4-0.2-0.6-0.2l0,4.3h-2.7V2.6z"/>
	<path class="st0" d="M8.8,22.5H6.2v-1.8c0-0.5,0-0.8-0.1-1s-0.2-0.2-0.4-0.2c-0.2,0-0.4,0.1-0.4,0.2c-0.1,0.2-0.1,0.5-0.1,1v4.7
		c0,0.5,0,0.8,0.1,1c0.1,0.2,0.2,0.2,0.4,0.2c0.2,0,0.3-0.1,0.4-0.2c0.1-0.2,0.1-0.5,0.1-1.1v-1.3h2.7v0.4c0,1.1-0.1,1.8-0.2,2.2
		s-0.5,0.8-1,1.2s-1.1,0.5-1.9,0.5c-0.8,0-1.4-0.1-1.9-0.4c-0.5-0.3-0.8-0.7-1-1.2c-0.2-0.5-0.2-1.2-0.2-2.2v-3c0-0.7,0-1.3,0.1-1.7
		s0.2-0.7,0.5-1.1s0.6-0.6,1-0.8c0.4-0.2,1-0.3,1.5-0.3c0.8,0,1.4,0.2,1.9,0.5c0.5,0.3,0.8,0.7,1,1.1c0.2,0.5,0.2,1.2,0.2,2.1V22.5z
		"/>
	<path class="st0" d="M16.3,28.3h-2.7v-8.2h-0.8v5.8c0,0.8-0.1,1.3-0.3,1.6c-0.2,0.3-0.5,0.5-0.9,0.6s-1,0.1-1.9,0.1H9.3v-1.8
		c0.3,0,0.5,0,0.7-0.1c0.1-0.1,0.2-0.4,0.2-0.8v-7.5h6.1V28.3z"/>
	<path class="st0" d="M23.2,28.3H21v-4.6l-1.4,4.6h-2.3V18.1h2.2v4.6l1.5-4.6h2.2V28.3z"/>
	<path class="st0" d="M29,22.5c0.4,0.1,0.7,0.3,0.9,0.6c0.2,0.3,0.3,1,0.3,2.1c0,0.8-0.1,1.4-0.3,1.9c-0.2,0.4-0.5,0.8-1,1
		c-0.5,0.2-1,0.3-1.7,0.3c-0.8,0-1.4-0.1-1.9-0.4c-0.5-0.3-0.8-0.6-0.9-1c-0.1-0.4-0.2-1.1-0.2-2v-0.8h2.5v1.7c0,0.4,0,0.7,0.1,0.8
		c0.1,0.1,0.2,0.2,0.3,0.2c0.2,0,0.3-0.1,0.4-0.2c0.1-0.2,0.1-0.5,0.1-1.2v-0.7c0-0.4,0-0.7-0.1-0.9c-0.1-0.2-0.2-0.3-0.4-0.4
		c-0.2-0.1-0.5-0.1-1-0.1V22c0.6,0,1,0,1.1-0.1c0.1,0,0.2-0.1,0.3-0.3s0.1-0.4,0.1-0.7v-0.6c0-0.4,0-0.6-0.1-0.7
		c-0.1-0.1-0.2-0.2-0.3-0.2c-0.2,0-0.3,0.1-0.4,0.2c-0.1,0.1-0.1,0.4-0.1,0.8v0.8h-2.5v-0.9c0-1,0.2-1.6,0.7-2
		c0.4-0.3,1.2-0.5,2.1-0.5c1.2,0,2,0.2,2.5,0.7c0.4,0.5,0.6,1.1,0.6,2c0,0.6-0.1,1-0.2,1.2S29.4,22.3,29,22.5z"/>
	<path class="st0" d="M37.1,28.3h-2.2v-4.6l-1.4,4.6h-2.3V18.1h2.2v4.6l1.5-4.6h2.2V28.3z"/>
	<path class="st0" d="M44.3,22.5h-2.7v-1.8c0-0.5,0-0.8-0.1-1s-0.2-0.2-0.4-0.2c-0.2,0-0.4,0.1-0.4,0.2c-0.1,0.2-0.1,0.5-0.1,1v4.7
		c0,0.5,0,0.8,0.1,1c0.1,0.2,0.2,0.2,0.4,0.2c0.2,0,0.3-0.1,0.4-0.2c0.1-0.2,0.1-0.5,0.1-1.1v-1.3h2.7v0.4c0,1.1-0.1,1.8-0.2,2.2
		s-0.5,0.8-1,1.2s-1.1,0.5-1.9,0.5c-0.8,0-1.4-0.1-1.9-0.4c-0.5-0.3-0.8-0.7-1-1.2c-0.2-0.5-0.2-1.2-0.2-2.2v-3c0-0.7,0-1.3,0.1-1.7
		s0.2-0.7,0.5-1.1s0.6-0.6,1-0.8c0.4-0.2,1-0.3,1.5-0.3c0.8,0,1.4,0.2,1.9,0.5c0.5,0.3,0.8,0.7,1,1.1c0.2,0.5,0.2,1.2,0.2,2.1V22.5z
		"/>
	<path class="st0" d="M50.6,18.1v2H49v8.2h-2.7v-8.2h-1.6v-2H50.6z"/>
	<path class="st0" d="M57.3,24.1c0,1,0,1.7-0.1,2.2c0,0.4-0.2,0.8-0.5,1.2s-0.6,0.6-1,0.8c-0.4,0.2-0.9,0.3-1.5,0.3
		c-0.5,0-1-0.1-1.5-0.3c-0.4-0.2-0.8-0.4-1-0.8c-0.3-0.4-0.4-0.7-0.5-1.2c-0.1-0.4-0.1-1.2-0.1-2.2v-1.7c0-1,0-1.7,0.1-2.2
		c0-0.4,0.2-0.8,0.5-1.2s0.6-0.6,1-0.8c0.4-0.2,0.9-0.3,1.5-0.3c0.5,0,1,0.1,1.5,0.3c0.4,0.2,0.8,0.4,1,0.8s0.4,0.7,0.5,1.2
		c0.1,0.4,0.1,1.2,0.1,2.2V24.1z M54.6,20.7c0-0.5,0-0.8-0.1-0.9c-0.1-0.1-0.2-0.2-0.3-0.2c-0.1,0-0.2,0.1-0.3,0.2
		c-0.1,0.1-0.1,0.4-0.1,0.9v4.8c0,0.6,0,1,0.1,1.1s0.2,0.2,0.3,0.2c0.2,0,0.3-0.1,0.3-0.2c0.1-0.2,0.1-0.5,0.1-1.1V20.7z"/>
	<path class="st0" d="M64.2,28.3h-2.2v-4.6l-1.4,4.6h-2.3V18.1h2.2v4.6l1.5-4.6h2.2V28.3z M61.9,15.9H63c0,0.6-0.2,1-0.5,1.4
		c-0.3,0.3-0.7,0.5-1.3,0.5c-0.6,0-1-0.2-1.3-0.5c-0.3-0.4-0.5-0.8-0.5-1.4h1.1c0.1,0.6,0.3,0.9,0.7,0.9
		C61.6,16.7,61.9,16.5,61.9,15.9z"/>
	<path class="st0" d="M73.5,24.1c0,1,0,1.7-0.1,2.2c0,0.4-0.2,0.8-0.5,1.2s-0.6,0.6-1,0.8c-0.4,0.2-0.9,0.3-1.5,0.3
		c-0.5,0-1-0.1-1.5-0.3c-0.4-0.2-0.8-0.4-1-0.8c-0.3-0.4-0.4-0.7-0.5-1.2c-0.1-0.4-0.1-1.2-0.1-2.2v-1.7c0-1,0-1.7,0.1-2.2
		c0-0.4,0.2-0.8,0.5-1.2c0.3-0.4,0.6-0.6,1-0.8c0.4-0.2,0.9-0.3,1.5-0.3c0.5,0,1,0.1,1.5,0.3s0.8,0.4,1,0.8s0.4,0.7,0.5,1.2
		c0.1,0.4,0.1,1.2,0.1,2.2V24.1z M70.9,20.7c0-0.5,0-0.8-0.1-0.9c-0.1-0.1-0.2-0.2-0.3-0.2c-0.1,0-0.2,0.1-0.3,0.2
		c-0.1,0.1-0.1,0.4-0.1,0.9v4.8c0,0.6,0,1,0.1,1.1c0,0.1,0.2,0.2,0.3,0.2c0.2,0,0.3-0.1,0.3-0.2c0.1-0.2,0.1-0.5,0.1-1.1V20.7z"/>
	<path class="st0" d="M80.7,25.9c0,0.8-0.1,1.3-0.3,1.6c-0.2,0.3-0.5,0.5-0.9,0.6c-0.4,0.1-1,0.1-1.9,0.1h-3.1V18.1h5.2v1.8h-2.5
		v1.7h0.4c0.8,0,1.4,0,1.9,0.1s0.7,0.3,0.9,0.6c0.2,0.3,0.3,0.8,0.3,1.6V25.9z M78.1,25.6v-1.5c0-0.4,0-0.7-0.1-0.8
		c-0.1-0.1-0.3-0.1-0.7-0.2v3.3c0.3,0,0.6,0,0.7-0.1C78,26.3,78.1,26.1,78.1,25.6z"/>
	<path class="st0" d="M87.7,24.1c0,1,0,1.7-0.1,2.2c0,0.4-0.2,0.8-0.5,1.2s-0.6,0.6-1,0.8c-0.4,0.2-0.9,0.3-1.5,0.3
		c-0.5,0-1-0.1-1.5-0.3c-0.4-0.2-0.8-0.4-1-0.8c-0.3-0.4-0.4-0.7-0.5-1.2c-0.1-0.4-0.1-1.2-0.1-2.2v-1.7c0-1,0-1.7,0.1-2.2
		c0-0.4,0.2-0.8,0.5-1.2c0.3-0.4,0.6-0.6,1-0.8c0.4-0.2,0.9-0.3,1.5-0.3c0.5,0,1,0.1,1.5,0.3s0.8,0.4,1,0.8s0.4,0.7,0.5,1.2
		c0.1,0.4,0.1,1.2,0.1,2.2V24.1z M85.1,20.7c0-0.5,0-0.8-0.1-0.9c-0.1-0.1-0.2-0.2-0.3-0.2c-0.1,0-0.2,0.1-0.3,0.2
		c-0.1,0.1-0.1,0.4-0.1,0.9v4.8c0,0.6,0,1,0.1,1.1c0,0.1,0.2,0.2,0.3,0.2c0.2,0,0.3-0.1,0.3-0.2c0.1-0.2,0.1-0.5,0.1-1.1V20.7z"/>
	<path class="st0" d="M95.2,28.3h-2.7v-8.2h-0.8v5.8c0,0.8-0.1,1.3-0.3,1.6c-0.2,0.3-0.5,0.5-0.9,0.6s-1,0.1-1.9,0.1h-0.4v-1.8
		c0.3,0,0.5,0,0.7-0.1c0.1-0.1,0.2-0.4,0.2-0.8v-7.5h6.1V28.3z"/>
	<path class="st0" d="M102.3,24.1c0,1,0,1.7-0.1,2.2c0,0.4-0.2,0.8-0.5,1.2s-0.6,0.6-1,0.8c-0.4,0.2-0.9,0.3-1.5,0.3
		c-0.5,0-1-0.1-1.5-0.3c-0.4-0.2-0.8-0.4-1-0.8c-0.3-0.4-0.4-0.7-0.5-1.2c-0.1-0.4-0.1-1.2-0.1-2.2v-1.7c0-1,0-1.7,0.1-2.2
		c0-0.4,0.2-0.8,0.5-1.2c0.3-0.4,0.6-0.6,1-0.8c0.4-0.2,0.9-0.3,1.5-0.3c0.5,0,1,0.1,1.5,0.3s0.8,0.4,1,0.8s0.4,0.7,0.5,1.2
		c0.1,0.4,0.1,1.2,0.1,2.2V24.1z M99.6,20.7c0-0.5,0-0.8-0.1-0.9c-0.1-0.1-0.2-0.2-0.3-0.2c-0.1,0-0.2,0.1-0.3,0.2
		c-0.1,0.1-0.1,0.4-0.1,0.9v4.8c0,0.6,0,1,0.1,1.1c0,0.1,0.2,0.2,0.3,0.2c0.2,0,0.3-0.1,0.3-0.2c0.1-0.2,0.1-0.5,0.1-1.1V20.7z"/>
	<path class="st0" d="M106.9,24.4c-0.2,0.2-0.5,0.4-0.8,0.5c-0.3,0.1-0.7,0.2-1,0.2c-0.6,0-1.1-0.2-1.4-0.5
		c-0.3-0.4-0.4-0.9-0.4-1.6v-4.9h2.7v4.6c0,0.4,0,0.7,0.1,0.8s0.2,0.2,0.3,0.2c0.4,0,0.6-0.3,0.6-1v-4.6h2.7v10.2h-2.7V24.4z"/>
	<path class="st0" d="M110.6,18.1h2.7l0,4.3c0.5,0,0.8-0.3,0.8-0.8l0.1-2c0-0.7,0.2-1.2,0.4-1.5h2.4c-0.2,0.2-0.4,0.8-0.4,1.5l0,1.8
		c0,1.1-0.6,1.7-1.8,1.8c1.2,0.1,1.8,0.8,1.8,1.8l0,1.6c0,0.8,0.1,1.3,0.4,1.6h-2.4c-0.3-0.3-0.4-0.8-0.4-1.5v-2
		c0-0.3-0.1-0.5-0.2-0.6s-0.4-0.2-0.6-0.2l0,4.3h-2.7V18.1z"/>
	<path class="st0" d="M123.4,28.3h-2.2v-4.6l-1.4,4.6h-2.3V18.1h2.2v4.6l1.5-4.6h2.2V28.3z"/>
	<path class="st0" d="M132.9,18.1v10.2h-2.7V24h-0.8v4.3h-2.7V18.1h2.7v3.6h0.8v-3.6H132.9z"/>
	<path class="st0" d="M140,24.1c0,1,0,1.7-0.1,2.2c0,0.4-0.2,0.8-0.5,1.2s-0.6,0.6-1,0.8c-0.4,0.2-0.9,0.3-1.5,0.3
		c-0.5,0-1-0.1-1.5-0.3c-0.4-0.2-0.8-0.4-1-0.8c-0.3-0.4-0.4-0.7-0.5-1.2c-0.1-0.4-0.1-1.2-0.1-2.2v-1.7c0-1,0-1.7,0.1-2.2
		c0-0.4,0.2-0.8,0.5-1.2c0.3-0.4,0.6-0.6,1-0.8c0.4-0.2,0.9-0.3,1.5-0.3c0.5,0,1,0.1,1.5,0.3s0.8,0.4,1,0.8s0.4,0.7,0.5,1.2
		c0.1,0.4,0.1,1.2,0.1,2.2V24.1z M137.3,20.7c0-0.5,0-0.8-0.1-0.9c-0.1-0.1-0.2-0.2-0.3-0.2c-0.1,0-0.2,0.1-0.3,0.2
		c-0.1,0.1-0.1,0.4-0.1,0.9v4.8c0,0.6,0,1,0.1,1.1c0,0.1,0.2,0.2,0.3,0.2c0.2,0,0.3-0.1,0.3-0.2c0.1-0.2,0.1-0.5,0.1-1.1V20.7z"/>
	<path class="st0" d="M147.2,22.5h-2.7v-1.8c0-0.5,0-0.8-0.1-1s-0.2-0.2-0.4-0.2c-0.2,0-0.4,0.1-0.4,0.2c-0.1,0.2-0.1,0.5-0.1,1v4.7
		c0,0.5,0,0.8,0.1,1c0.1,0.2,0.2,0.2,0.4,0.2c0.2,0,0.3-0.1,0.4-0.2c0.1-0.2,0.1-0.5,0.1-1.1v-1.3h2.7v0.4c0,1.1-0.1,1.8-0.2,2.2
		c-0.1,0.4-0.5,0.8-1,1.2s-1.1,0.5-1.9,0.5c-0.8,0-1.4-0.1-1.9-0.4c-0.5-0.3-0.8-0.7-1-1.2c-0.2-0.5-0.2-1.2-0.2-2.2v-3
		c0-0.7,0-1.3,0.1-1.7c0-0.4,0.2-0.7,0.5-1.1c0.2-0.3,0.6-0.6,1-0.8c0.4-0.2,1-0.3,1.5-0.3c0.8,0,1.4,0.2,1.9,0.5
		c0.5,0.3,0.8,0.7,1,1.1c0.2,0.5,0.2,1.2,0.2,2.1V22.5z"/>
	<path class="st0" d="M152.7,18.1l1.5,10.2h-2.7l-0.1-1.8h-0.9l-0.2,1.8h-2.7l1.4-10.2H152.7z M151.3,24.7c-0.1-1.2-0.3-2.6-0.4-4.3
		c-0.3,2-0.4,3.4-0.5,4.3H151.3z"/>
</g>
</svg>
