<?xml version="1.0" encoding="utf-8"?>
<!-- Generator: Adobe Illustrator 22.0.0, SVG Export Plug-In . SVG Version: 6.00 Build 0)  -->
<svg version="1.1" id="Слой_1" xmlns="http://www.w3.org/2000/svg" xmlns:xlink="http://www.w3.org/1999/xlink" x="0px" y="0px"
	 viewBox="0 0 128.8 15" style="enable-background:new 0 0 128.8 15;" xml:space="preserve">
<style type="text/css">
	.st0{fill:#0093CB;}
</style>
<g>
	<path class="st0" d="M8.3,12.6H5.7V4.4H4.9v8.2H2.2V2.4h6.1V12.6z"/>
	<path class="st0" d="M9.4,2.4H12c0.7,0,1.3,0.1,1.7,0.2s0.7,0.3,0.9,0.5s0.3,0.5,0.4,0.8c0.1,0.3,0.1,0.8,0.1,1.4v0.9
		c0,0.7-0.1,1.1-0.2,1.4c-0.1,0.3-0.4,0.5-0.7,0.7c-0.4,0.2-0.8,0.2-1.4,0.2H12v4.1H9.4V2.4z M12,4.1v2.6c0.1,0,0.1,0,0.2,0
		c0.2,0,0.4-0.1,0.5-0.2c0.1-0.1,0.1-0.4,0.1-0.7V5c0-0.3-0.1-0.6-0.2-0.7C12.6,4.2,12.4,4.1,12,4.1z"/>
	<path class="st0" d="M21.9,8.4c0,1,0,1.7-0.1,2.2c0,0.4-0.2,0.8-0.5,1.2c-0.3,0.4-0.6,0.6-1,0.8c-0.4,0.2-0.9,0.3-1.5,0.3
		c-0.5,0-1-0.1-1.5-0.3c-0.4-0.2-0.8-0.4-1-0.8c-0.3-0.4-0.4-0.7-0.5-1.2c-0.1-0.4-0.1-1.2-0.1-2.2V6.6c0-1,0-1.7,0.1-2.2
		c0-0.4,0.2-0.8,0.5-1.2s0.6-0.6,1-0.8c0.4-0.2,0.9-0.3,1.5-0.3c0.5,0,1,0.1,1.5,0.3c0.4,0.2,0.8,0.4,1,0.8c0.3,0.4,0.4,0.7,0.5,1.2
		c0.1,0.4,0.1,1.2,0.1,2.2V8.4z M19.3,5c0-0.5,0-0.8-0.1-0.9C19.1,4,19,3.9,18.9,3.9c-0.1,0-0.2,0.1-0.3,0.2
		c-0.1,0.1-0.1,0.4-0.1,0.9v4.8c0,0.6,0,1,0.1,1.1s0.2,0.2,0.3,0.2c0.2,0,0.3-0.1,0.3-0.2c0.1-0.2,0.1-0.5,0.1-1.1V5z"/>
	<path class="st0" d="M28.2,2.4v2h-1.6v8.2H24V4.4h-1.6v-2H28.2z"/>
	<path class="st0" d="M34.8,12.6h-2.2V7.9l-1.4,4.6h-2.3V2.4h2.2V7l1.5-4.6h2.2V12.6z"/>
	<path class="st0" d="M35.8,2.4h2.6c0.8,0,1.5,0.1,1.9,0.2s0.8,0.4,1,0.8c0.3,0.4,0.4,1,0.4,1.9c0,0.6-0.1,1-0.3,1.2
		c-0.2,0.2-0.6,0.4-1.1,0.5c0.6,0.1,1,0.4,1.2,0.7S42,8.6,42,9.2v0.9c0,0.7-0.1,1.2-0.2,1.5c-0.2,0.3-0.4,0.6-0.8,0.7
		s-1,0.2-2.1,0.2h-3.1V2.4z M38.5,4.1v2.3c0.1,0,0.2,0,0.3,0c0.3,0,0.4-0.1,0.5-0.2s0.1-0.5,0.1-1.1c0-0.3,0-0.5-0.1-0.7
		c-0.1-0.1-0.1-0.2-0.2-0.2C38.9,4.1,38.7,4.1,38.5,4.1z M38.5,8v2.9c0.4,0,0.6-0.1,0.7-0.2c0.1-0.1,0.2-0.4,0.2-0.8v-1
		c0-0.4,0-0.7-0.1-0.8C39.1,8,38.9,8,38.5,8z"/>
	<path class="st0" d="M49,8.4c0,1,0,1.7-0.1,2.2c0,0.4-0.2,0.8-0.5,1.2c-0.3,0.4-0.6,0.6-1,0.8c-0.4,0.2-0.9,0.3-1.5,0.3
		c-0.5,0-1-0.1-1.5-0.3c-0.4-0.2-0.8-0.4-1-0.8c-0.3-0.4-0.4-0.7-0.5-1.2c-0.1-0.4-0.1-1.2-0.1-2.2V6.6c0-1,0-1.7,0.1-2.2
		c0-0.4,0.2-0.8,0.5-1.2s0.6-0.6,1-0.8c0.4-0.2,0.9-0.3,1.5-0.3c0.5,0,1,0.1,1.5,0.3c0.4,0.2,0.8,0.4,1,0.8c0.3,0.4,0.4,0.7,0.5,1.2
		C49,4.8,49,5.6,49,6.6V8.4z M46.3,5c0-0.5,0-0.8-0.1-0.9c-0.1-0.1-0.2-0.2-0.3-0.2c-0.1,0-0.2,0.1-0.3,0.2
		c-0.1,0.1-0.1,0.4-0.1,0.9v4.8c0,0.6,0,1,0.1,1.1s0.2,0.2,0.3,0.2c0.2,0,0.3-0.1,0.3-0.2c0.1-0.2,0.1-0.5,0.1-1.1V5z"/>
	<path class="st0" d="M54.6,2.4l1.5,10.2h-2.7l-0.1-1.8h-0.9l-0.2,1.8h-2.7l1.4-10.2H54.6z M53.2,8.9c-0.1-1.2-0.3-2.6-0.4-4.3
		c-0.3,2-0.4,3.4-0.5,4.3H53.2z"/>
	<path class="st0" d="M63,12.6h-2.7V4.4h-0.8v5.8c0,0.8-0.1,1.3-0.3,1.6c-0.2,0.3-0.5,0.5-0.9,0.6s-1,0.1-1.9,0.1h-0.4v-1.8
		c0.3,0,0.5,0,0.7-0.1c0.1-0.1,0.2-0.4,0.2-0.8V2.4H63V12.6z"/>
	<path class="st0" d="M64.1,2.4h4.4v2h-1.8v1.9h1.7v1.9h-1.7v2.2h1.9v2h-4.6V2.4z"/>
	<path class="st0" d="M69.4,2.4h2.7c0.7,0,1.3,0.1,1.7,0.2c0.4,0.1,0.7,0.3,0.9,0.5C74.8,3.3,75,3.5,75,3.8c0.1,0.3,0.1,0.8,0.1,1.4
		v0.9c0,0.7-0.1,1.1-0.2,1.4c-0.1,0.3-0.4,0.5-0.7,0.7c-0.4,0.2-0.8,0.2-1.4,0.2h-0.7v4.1h-2.7V2.4z M72.1,4.1v2.6
		c0.1,0,0.1,0,0.2,0c0.2,0,0.4-0.1,0.5-0.2c0.1-0.1,0.1-0.4,0.1-0.7V5c0-0.3-0.1-0.6-0.2-0.7C72.6,4.2,72.4,4.1,72.1,4.1z"/>
	<path class="st0" d="M80.5,4.4h-1.9v8.2h-2.7V2.4h4.6V4.4z"/>
	<path class="st0" d="M87.1,12.6h-2.2V7.9l-1.4,4.6h-2.3V2.4h2.2V7l1.5-4.6h2.2V12.6z"/>
	<path class="st0" d="M91.8,8.7c-0.2,0.2-0.5,0.4-0.8,0.5c-0.3,0.1-0.7,0.2-1,0.2c-0.6,0-1.1-0.2-1.4-0.5c-0.3-0.4-0.4-0.9-0.4-1.6
		V2.4h2.7V7c0,0.4,0,0.7,0.1,0.8S91,8,91.2,8c0.4,0,0.6-0.3,0.6-1V2.4h2.7v10.2h-2.7V8.7z"/>
	<path class="st0" d="M95.5,2.4h4.4v2h-1.8v1.9h1.7v1.9h-1.7v2.2h1.9v2h-4.6V2.4z"/>
	<path class="st0" d="M107.1,6.8h-2.7V5c0-0.5,0-0.8-0.1-1c-0.1-0.1-0.2-0.2-0.4-0.2c-0.2,0-0.4,0.1-0.4,0.2c-0.1,0.2-0.1,0.5-0.1,1
		v4.7c0,0.5,0,0.8,0.1,1c0.1,0.2,0.2,0.2,0.4,0.2c0.2,0,0.3-0.1,0.4-0.2c0.1-0.2,0.1-0.5,0.1-1.1V8.5h2.7v0.4c0,1.1-0.1,1.8-0.2,2.2
		c-0.1,0.4-0.5,0.8-1,1.2s-1.1,0.5-1.9,0.5c-0.8,0-1.4-0.1-1.9-0.4c-0.5-0.3-0.8-0.7-1-1.2c-0.2-0.5-0.2-1.2-0.2-2.2V6
		c0-0.7,0-1.3,0.1-1.7c0-0.4,0.2-0.7,0.5-1.1c0.2-0.3,0.6-0.6,1-0.8c0.4-0.2,1-0.3,1.5-0.3c0.8,0,1.4,0.2,1.9,0.5
		c0.5,0.3,0.8,0.7,1,1.1c0.2,0.5,0.2,1.2,0.2,2.1V6.8z"/>
	<path class="st0" d="M108,2.4h2.7l0,4.3c0.5,0,0.8-0.3,0.8-0.8l0.1-2c0-0.7,0.2-1.2,0.4-1.5h2.4c-0.2,0.2-0.4,0.8-0.4,1.5l0,1.8
		c0,1.1-0.6,1.7-1.8,1.8c1.2,0.1,1.8,0.8,1.8,1.8l0,1.6c0,0.8,0.1,1.3,0.4,1.6h-2.4c-0.3-0.3-0.4-0.8-0.4-1.5v-2
		c0-0.3-0.1-0.5-0.2-0.6s-0.4-0.2-0.6-0.2l0,4.3H108V2.4z"/>
	<path class="st0" d="M121,8.4c0,1,0,1.7-0.1,2.2c0,0.4-0.2,0.8-0.5,1.2s-0.6,0.6-1,0.8c-0.4,0.2-0.9,0.3-1.5,0.3
		c-0.5,0-1-0.1-1.5-0.3c-0.4-0.2-0.8-0.4-1-0.8c-0.3-0.4-0.4-0.7-0.5-1.2c-0.1-0.4-0.1-1.2-0.1-2.2V6.6c0-1,0-1.7,0.1-2.2
		c0-0.4,0.2-0.8,0.5-1.2c0.3-0.4,0.6-0.6,1-0.8c0.4-0.2,0.9-0.3,1.5-0.3c0.5,0,1,0.1,1.5,0.3s0.8,0.4,1,0.8s0.4,0.7,0.5,1.2
		c0.1,0.4,0.1,1.2,0.1,2.2V8.4z M118.3,5c0-0.5,0-0.8-0.1-0.9c-0.1-0.1-0.2-0.2-0.3-0.2c-0.1,0-0.2,0.1-0.3,0.2
		c-0.1,0.1-0.1,0.4-0.1,0.9v4.8c0,0.6,0,1,0.1,1.1c0,0.1,0.2,0.2,0.3,0.2c0.2,0,0.3-0.1,0.3-0.2c0.1-0.2,0.1-0.5,0.1-1.1V5z"/>
	<path class="st0" d="M122,2.4h4.4v2h-1.8v1.9h1.7v1.9h-1.7v2.2h1.9v2H122V2.4z"/>
</g>
</svg>
