<?xml version="1.0" encoding="utf-8"?>
<!-- Generator: Adobe Illustrator 22.0.0, SVG Export Plug-In . SVG Version: 6.00 Build 0)  -->
<svg version="1.1" id="Слой_1" xmlns="http://www.w3.org/2000/svg" xmlns:xlink="http://www.w3.org/1999/xlink" x="0px" y="0px"
	 viewBox="0 0 102.7 36.6" style="enable-background:new 0 0 102.7 36.6;" xml:space="preserve">
<style type="text/css">
	.st0{fill:#E31E24;}
	.st1{fill:#3FA9F5;}
</style>
<g>
	
		<image style="overflow:visible;" width="480" height="206" xlink:href="386FB329.png"  transform="matrix(0.24 0 0 0.24 -6.1935 -6.0491)">
	</image>
	<g>
		<g>
			<path class="st0" d="M9.9,14.8H7V5.8H6.2v8.9H3.2V3.6h6.7V14.8z"/>
			<path class="st0" d="M17.7,10.2c0,1.1,0,1.9-0.1,2.4s-0.2,0.9-0.5,1.3s-0.7,0.7-1.1,0.9c-0.5,0.2-1,0.3-1.7,0.3
				c-0.6,0-1.1-0.1-1.6-0.3c-0.5-0.2-0.9-0.5-1.1-0.9c-0.3-0.4-0.5-0.8-0.5-1.3C11,12.1,11,11.3,11,10.2V8.2c0-1.1,0-1.9,0.1-2.4
				c0.1-0.5,0.2-0.9,0.5-1.3c0.3-0.4,0.7-0.7,1.1-0.9c0.5-0.2,1-0.3,1.7-0.3c0.6,0,1.1,0.1,1.6,0.3c0.5,0.2,0.9,0.5,1.1,0.9
				s0.5,0.8,0.5,1.3c0.1,0.5,0.1,1.3,0.1,2.4V10.2z M14.8,6.5c0-0.5,0-0.9-0.1-1c-0.1-0.1-0.2-0.2-0.4-0.2c-0.2,0-0.3,0.1-0.3,0.2
				c-0.1,0.1-0.1,0.5-0.1,1v5.2c0,0.6,0,1,0.1,1.2c0.1,0.2,0.2,0.2,0.4,0.2c0.2,0,0.3-0.1,0.4-0.3c0.1-0.2,0.1-0.6,0.1-1.2V6.5z"/>
			<path class="st1" d="M26.5,8.5c0.4,0.1,0.7,0.4,0.9,0.7s0.3,1.1,0.3,2.3c0,0.9-0.1,1.6-0.3,2.1c-0.2,0.5-0.6,0.9-1,1.1
				c-0.5,0.3-1.1,0.4-1.9,0.4c-0.9,0-1.6-0.1-2.1-0.4c-0.5-0.3-0.8-0.7-1-1.1s-0.2-1.2-0.2-2.2v-0.9h2.8v1.8c0,0.5,0,0.8,0.1,0.9
				c0.1,0.1,0.2,0.2,0.4,0.2c0.2,0,0.4-0.1,0.4-0.2c0.1-0.2,0.1-0.6,0.1-1.3V11c0-0.4,0-0.7-0.1-0.9c-0.1-0.2-0.2-0.3-0.4-0.4
				c-0.2-0.1-0.6-0.1-1.1-0.1V7.9c0.7,0,1.1,0,1.2-0.1c0.2-0.1,0.3-0.2,0.3-0.3c0.1-0.2,0.1-0.4,0.1-0.8V6.1c0-0.4,0-0.6-0.1-0.8
				c-0.1-0.1-0.2-0.2-0.4-0.2c-0.2,0-0.3,0.1-0.4,0.2s-0.1,0.4-0.1,0.8v0.9h-2.8v-1c0-1.1,0.2-1.8,0.7-2.2c0.5-0.4,1.3-0.6,2.3-0.6
				c1.3,0,2.2,0.3,2.7,0.8c0.5,0.5,0.7,1.2,0.7,2.2c0,0.6-0.1,1.1-0.3,1.4S26.9,8.2,26.5,8.5z"/>
			<path class="st1" d="M32.1,9.2v1.9h-3.7V9.2H32.1z"/>
			<path class="st1" d="M38.6,3.6v7.3h0.8v1.9h-0.8v2h-2.8v-2h-3.3v-1.9l2.4-7.3H38.6z M35.8,10.9V6.2l-1.2,4.8H35.8z"/>
			<path class="st0" d="M49.2,14.8h-2.9V5.8h-0.9v8.9h-2.9V3.6h6.7V14.8z"/>
			<path class="st0" d="M55.4,3.6L57,14.8h-3l-0.2-2h-1l-0.2,2h-3l1.5-11.2H55.4z M53.8,10.8c-0.1-1.3-0.3-2.8-0.4-4.7
				c-0.3,2.1-0.5,3.7-0.6,4.7H53.8z"/>
			<path class="st0" d="M57.5,3.6h2.9l0,4.7c0.5,0,0.8-0.3,0.8-0.9l0.1-2.2c0-0.8,0.2-1.3,0.5-1.6h2.7c-0.3,0.3-0.4,0.8-0.4,1.7
				l0,1.9c0,1.2-0.6,1.8-2,2c1.3,0.2,2,0.8,2,2l0,1.8c0,0.8,0.1,1.4,0.4,1.8h-2.7c-0.3-0.3-0.5-0.8-0.5-1.6V11
				c0-0.3-0.1-0.5-0.3-0.7s-0.4-0.3-0.7-0.3l0,4.7h-2.9V3.6z"/>
			<path class="st0" d="M65.1,3.6H70v2.2H68V8h1.8v2.1H68v2.5h2.1v2.2h-5V3.6z"/>
			<path class="st0" d="M76.8,3.6v2.2h-1.7v8.9h-2.9V5.9h-1.7V3.6H76.8z"/>
			<path class="st0" d="M84,14.8h-2.4V9.7l-1.5,5.1h-2.5V3.6h2.4v5l1.6-5H84V14.8z"/>
			<path class="st0" d="M85.2,3.6h2.9l0,4.7c0.5,0,0.8-0.3,0.8-0.9L89,5.2c0-0.8,0.2-1.3,0.5-1.6h2.7c-0.3,0.3-0.4,0.8-0.4,1.7
				l0,1.9c0,1.2-0.6,1.8-2,2c1.3,0.2,2,0.8,2,2l0,1.8c0,0.8,0.1,1.4,0.4,1.8h-2.7C89.1,14.5,89,14,89,13.2V11c0-0.3-0.1-0.5-0.3-0.7
				s-0.4-0.3-0.7-0.3l0,4.7h-2.9V3.6z"/>
			<path class="st0" d="M97.8,3.6l1.7,11.2h-3l-0.2-2h-1l-0.2,2h-3l1.5-11.2H97.8z M96.2,10.8c-0.1-1.3-0.3-2.8-0.4-4.7
				c-0.3,2.1-0.5,3.7-0.6,4.7H96.2z"/>
			<path class="st0" d="M31.1,20.6H34c0.9,0,1.6,0.1,2.1,0.2s0.9,0.4,1.1,0.9c0.3,0.4,0.4,1.1,0.4,2.1c0,0.7-0.1,1.1-0.3,1.4
				c-0.2,0.3-0.6,0.5-1.2,0.6c0.7,0.2,1.1,0.4,1.4,0.8s0.4,0.9,0.4,1.6v1c0,0.8-0.1,1.3-0.3,1.7c-0.2,0.4-0.4,0.6-0.8,0.7
				c-0.4,0.1-1.2,0.2-2.3,0.2h-3.4V20.6z M34,22.5V25c0.1,0,0.2,0,0.3,0c0.3,0,0.5-0.1,0.5-0.2c0.1-0.1,0.1-0.5,0.1-1.2
				c0-0.3,0-0.6-0.1-0.7s-0.1-0.2-0.3-0.3S34.3,22.5,34,22.5z M34,26.7v3.1c0.4,0,0.7-0.1,0.8-0.2s0.2-0.4,0.2-0.8v-1
				c0-0.5-0.1-0.8-0.2-0.9C34.7,26.8,34.4,26.7,34,26.7z"/>
			<path class="st0" d="M52.2,33.7h-2v-1.9h-4.7v1.9h-2v-4.3h0.6c0.3-0.9,0.6-2.1,0.8-3.6c0.2-1.5,0.3-3.1,0.3-4.9v-0.3h6.4v8.8h0.6
				V33.7z M48.7,29.4v-6.6h-0.9v0.1c0,2.1-0.2,4.3-0.7,6.5H48.7z"/>
			<path class="st0" d="M53.1,20.6h4.8v2.2H56v2.1h1.8v2.1H56v2.5h2.1v2.2h-5V20.6z"/>
			<path class="st0" d="M65.6,20.6v11.2h-2.9v-4.7h-0.9v4.7h-2.9V20.6h2.9v4h0.9v-4H65.6z"/>
			<path class="st0" d="M73.6,29.1c0,0.8-0.1,1.4-0.3,1.8s-0.5,0.6-1,0.7s-1.1,0.1-2.1,0.1h-3.4V20.6h2.9v3.8h0.4
				c0.9,0,1.6,0.1,2,0.2c0.5,0.1,0.8,0.3,1,0.7c0.2,0.4,0.3,0.9,0.3,1.7V29.1z M70.6,28.8v-1.6c0-0.5,0-0.8-0.1-0.9
				c-0.1-0.1-0.4-0.2-0.8-0.2v3.7c0.4,0,0.6,0,0.7-0.1C70.6,29.6,70.6,29.3,70.6,28.8z"/>
		</g>
	</g>
</g>
</svg>
