<?xml version="1.0" encoding="utf-8"?>
<!-- Generator: Adobe Illustrator 22.0.0, SVG Export Plug-In . SVG Version: 6.00 Build 0)  -->
<svg version="1.1" id="Слой_1" xmlns="http://www.w3.org/2000/svg" xmlns:xlink="http://www.w3.org/1999/xlink" x="0px" y="0px"
	 viewBox="0 0 109 15" style="enable-background:new 0 0 109 15;" xml:space="preserve">
<style type="text/css">
	.st0{fill:#0093CB;}
</style>
<g>
	<path class="st0" d="M4.7,7.9c-0.6,0-0.8,0.3-0.8,0.7v2.7c0,0.4,0,0.6-0.1,0.8c-0.1,0.1-0.1,0.2-0.2,0.2H1.4
		c0.2-0.3,0.3-0.7,0.3-1.2V8.8c0-0.5,0.1-0.9,0.4-1.1c0.3-0.3,0.7-0.4,1.4-0.5v0C2.3,7,1.7,6.5,1.7,5.4V3.3c0-0.5-0.1-0.9-0.3-1.2
		h2.2c0.1,0,0.1,0.1,0.2,0.3S3.9,2.7,3.9,3v2.5c0,0.5,0.3,0.7,0.8,0.7V2.1h2.7v4.2c0.6,0,0.8-0.3,0.8-0.7V3c0-0.4,0-0.6,0.1-0.8
		c0.1-0.1,0.1-0.2,0.2-0.2h2.2c-0.2,0.3-0.3,0.7-0.3,1.2v2.2c0,1-0.6,1.6-1.8,1.7v0C9.3,7.2,9.7,7.4,10,7.7s0.4,0.6,0.4,1.1v2.3
		c0,0.5,0.1,0.9,0.3,1.2H8.5c-0.1,0-0.1-0.1-0.2-0.3s-0.1-0.4-0.1-0.7V8.6c0-0.5-0.3-0.7-0.9-0.7v4.4H4.7V7.9z"/>
	<path class="st0" d="M15.9,2.1l1.5,10.2h-2.7l-0.1-1.8h-0.9l-0.2,1.8h-2.7l1.4-10.2H15.9z M14.5,8.6c-0.1-1.2-0.3-2.6-0.4-4.3
		c-0.3,2-0.4,3.4-0.5,4.3H14.5z"/>
	<path class="st0" d="M17.9,2.1h2.7c0.7,0,1.3,0.1,1.7,0.2s0.7,0.3,0.9,0.5s0.3,0.5,0.4,0.8c0.1,0.3,0.1,0.8,0.1,1.4v0.9
		c0,0.7-0.1,1.1-0.2,1.4c-0.1,0.3-0.4,0.5-0.7,0.7c-0.4,0.2-0.8,0.2-1.4,0.2h-0.7v4.1h-2.7V2.1z M20.5,3.8v2.6c0.1,0,0.1,0,0.2,0
		c0.2,0,0.4-0.1,0.5-0.2c0.1-0.1,0.1-0.4,0.1-0.7V4.7c0-0.3-0.1-0.6-0.2-0.7C21.1,3.9,20.9,3.8,20.5,3.8z"/>
	<path class="st0" d="M30.4,8.1c0,1,0,1.7-0.1,2.2c0,0.4-0.2,0.8-0.5,1.2c-0.3,0.4-0.6,0.6-1,0.8c-0.4,0.2-0.9,0.3-1.5,0.3
		c-0.5,0-1-0.1-1.5-0.3c-0.4-0.2-0.8-0.4-1-0.8c-0.3-0.4-0.4-0.7-0.5-1.2c-0.1-0.4-0.1-1.2-0.1-2.2V6.3c0-1,0-1.7,0.1-2.2
		c0-0.4,0.2-0.8,0.5-1.2s0.6-0.6,1-0.8c0.4-0.2,0.9-0.3,1.5-0.3c0.5,0,1,0.1,1.5,0.3c0.4,0.2,0.8,0.4,1,0.8c0.3,0.4,0.4,0.7,0.5,1.2
		c0.1,0.4,0.1,1.2,0.1,2.2V8.1z M27.8,4.7c0-0.5,0-0.8-0.1-0.9c-0.1-0.1-0.2-0.2-0.3-0.2c-0.1,0-0.2,0.1-0.3,0.2
		c-0.1,0.1-0.1,0.4-0.1,0.9v4.8c0,0.6,0,1,0.1,1.1s0.2,0.2,0.3,0.2c0.2,0,0.3-0.1,0.3-0.2c0.1-0.2,0.1-0.5,0.1-1.1V4.7z"/>
	<path class="st0" d="M37.5,12.3h-2.7V4.1h-0.8v8.2h-2.7V2.1h6.1V12.3z"/>
	<path class="st0" d="M44.6,8.1c0,1,0,1.7-0.1,2.2c0,0.4-0.2,0.8-0.5,1.2c-0.3,0.4-0.6,0.6-1,0.8c-0.4,0.2-0.9,0.3-1.5,0.3
		c-0.5,0-1-0.1-1.5-0.3c-0.4-0.2-0.8-0.4-1-0.8c-0.3-0.4-0.4-0.7-0.5-1.2c-0.1-0.4-0.1-1.2-0.1-2.2V6.3c0-1,0-1.7,0.1-2.2
		c0-0.4,0.2-0.8,0.5-1.2s0.6-0.6,1-0.8C40.5,2,41,1.9,41.6,1.9c0.5,0,1,0.1,1.5,0.3c0.4,0.2,0.8,0.4,1,0.8c0.3,0.4,0.4,0.7,0.5,1.2
		c0.1,0.4,0.1,1.2,0.1,2.2V8.1z M42,4.7c0-0.5,0-0.8-0.1-0.9c-0.1-0.1-0.2-0.2-0.3-0.2c-0.1,0-0.2,0.1-0.3,0.2
		c-0.1,0.1-0.1,0.4-0.1,0.9v4.8c0,0.6,0,1,0.1,1.1s0.2,0.2,0.3,0.2c0.2,0,0.3-0.1,0.3-0.2C41.9,10.4,42,10,42,9.4V4.7z"/>
	<path class="st0" d="M51.7,2.1v10.2h-2.7V8h-0.8v4.3h-2.7V2.1h2.7v3.6h0.8V2.1H51.7z"/>
	<path class="st0" d="M58.7,12.3h-2.2V7.6l-1.4,4.6h-2.3V2.1H55v4.6l1.5-4.6h2.2V12.3z"/>
	<path class="st0" d="M62.7,7.9c-0.6,0-0.8,0.3-0.8,0.7v2.7c0,0.4,0,0.6-0.1,0.8c-0.1,0.1-0.1,0.2-0.2,0.2h-2.2
		c0.2-0.3,0.3-0.7,0.3-1.2V8.8c0-0.5,0.1-0.9,0.4-1.1s0.7-0.4,1.4-0.5v0c-1.2-0.1-1.8-0.6-1.8-1.7V3.3c0-0.5-0.1-0.9-0.3-1.2h2.2
		c0.1,0,0.1,0.1,0.2,0.3c0.1,0.2,0.1,0.4,0.1,0.7v2.5c0,0.5,0.3,0.7,0.8,0.7V2.1h2.7v4.2c0.6,0,0.8-0.3,0.8-0.7V3
		c0-0.4,0-0.6,0.1-0.8c0.1-0.1,0.1-0.2,0.2-0.2h2.2c-0.2,0.3-0.3,0.7-0.3,1.2v2.2c0,1-0.6,1.6-1.8,1.7v0c0.7,0.1,1.1,0.3,1.4,0.5
		s0.4,0.6,0.4,1.1v2.3c0,0.5,0.1,0.9,0.3,1.2h-2.2c-0.1,0-0.1-0.1-0.2-0.3c-0.1-0.2-0.1-0.4-0.1-0.7V8.6c0-0.5-0.3-0.7-0.9-0.7v4.4
		h-2.7V7.9z"/>
	<path class="st0" d="M73.9,2.1l1.5,10.2h-2.7l-0.1-1.8h-0.9l-0.2,1.8h-2.7L70,2.1H73.9z M72.5,8.6c-0.1-1.2-0.3-2.6-0.4-4.3
		c-0.3,2-0.4,3.4-0.5,4.3H72.5z"/>
	<path class="st0" d="M79.2,8h-0.7v4.3h-2.7V2.1h2.7v3.7h0.7c0-0.9,0.1-1.5,0.1-1.9s0.3-0.7,0.5-1c0.3-0.3,0.6-0.4,1-0.6
		c0.4-0.1,0.9-0.2,1.4-0.2c0.6,0,1.1,0.1,1.5,0.2c0.4,0.1,0.7,0.3,1,0.6C85,3.2,85.2,3.5,85.2,4s0.1,1.2,0.1,2.3V8
		c0,1.1,0,1.9-0.1,2.3c-0.1,0.4-0.2,0.8-0.5,1.1s-0.6,0.5-1,0.6c-0.4,0.1-0.9,0.2-1.5,0.2c-0.5,0-1-0.1-1.4-0.2
		c-0.4-0.1-0.7-0.3-1-0.5c-0.3-0.2-0.4-0.5-0.5-0.8c-0.1-0.3-0.1-0.6-0.2-1.1C79.2,9.3,79.2,8.7,79.2,8L79.2,8z M82.7,9.8V4.7
		c0-0.4,0-0.7-0.1-0.9s-0.2-0.2-0.3-0.2c-0.2,0-0.3,0.1-0.3,0.2c-0.1,0.1-0.1,0.4-0.1,0.9v5.2c0,0.3,0,0.5,0.1,0.6
		c0.1,0.1,0.2,0.2,0.3,0.2c0.1,0,0.3-0.1,0.3-0.2C82.7,10.5,82.7,10.2,82.7,9.8z"/>
	<path class="st0" d="M96.4,14h-1.8v-1.8h-8.2V2.1H89v8.2h0.8V2.1h2.7v8.2h0.8V2.1h2.7v8.2h0.5V14z"/>
	<path class="st0" d="M97.2,2.1h4.4v2h-1.8v1.9h1.7V8h-1.7v2.2h1.9v2h-4.6V2.1z"/>
	<path class="st0" d="M102.5,2.1h4.4v2h-1.8v1.9h1.7V8h-1.7v2.2h1.9v2h-4.6V2.1z"/>
</g>
</svg>
